<?xml version="1.0" encoding="utf-8"?>
<!-- Generator: Adobe Illustrator 19.0.1, SVG Export Plug-In . SVG Version: 6.00 Build 0)  -->
<!DOCTYPE svg PUBLIC "-//W3C//DTD SVG 1.1//EN" "http://www.w3.org/Graphics/SVG/1.1/DTD/svg11.dtd">
<svg version="1.1" id="Layer_1" xmlns="http://www.w3.org/2000/svg" xmlns:xlink="http://www.w3.org/1999/xlink" x="0px" y="0px"
	 viewBox="0 0 224 110.4" enable-background="new 0 0 224 110.4" xml:space="preserve">
<g>
	<g>
		<path fill="#70BF49" d="M22.8,80.2H25l-5.8,14h-1.8l-5.8-14h2.2l4.5,11.1L22.8,80.2z"/>
		<path fill="#70BF49" d="M33.5,94.1c-4,0-6.9-3.2-6.9-7c0-3.8,3-7,7-7c4,0,7,3.2,7,7C40.5,90.9,37.5,94.1,33.5,94.1z M33.5,81.8
			c-2.9,0-4.9,2.3-4.9,5.2c0,2.9,2.1,5.2,4.9,5.2c2.9,0,4.9-2.3,4.9-5.2C38.4,84.2,36.3,81.8,33.5,81.8z"/>
		<path fill="#70BF49" d="M44,94.2v-19h2v19H44z"/>
		<path fill="#70BF49" d="M60,80.2h2v14h-2v-2.8c-1,1.5-2.4,2.6-4.7,2.6C52,94,50,91.9,50,88.7v-8.5h2v8c0,2.5,1.5,4,3.8,4
			c2.3,0,4.2-1.7,4.2-4.2V80.2z"/>
		<path fill="#70BF49" d="M68,94.2h-2v-14h2v2.5c1-1.4,2.4-2.6,4.7-2.6c3.2,0,5.3,2.2,5.3,5.4v8.7h-2v-8.2c0-2.5-1.5-4-3.8-4
			c-2.3,0-4.2,1.7-4.2,4.2V94.2z"/>
		<path fill="#70BF49" d="M85,90c0,1.6,0.8,2.2,2.2,2.2c0.7,0,0.8-0.1,1.8-0.5v1.7c-1,0.4-1.4,0.6-2.3,0.6c-2.1,0-3.7-1.1-3.7-3.8
			v-8h-2v-2h2v-4h2v4h4v2h-4V90z"/>
		<path fill="#70BF49" d="M98.8,92.5c1.8,0,3.1-0.8,4.2-2l1.2,1.1c-1.3,1.5-3,2.5-5.5,2.5c-3.7,0-6.7-2.8-6.7-7c0-3.9,2.7-7,6.4-7
			c4,0,6.2,3.3,6.2,7.3c0,0.2,0-0.2,0,0.8H94.1C94.3,91.2,96.4,92.5,98.8,92.5z M102.7,86.2c-0.2-2-1.6-4.6-4.3-4.6
			c-2.3,0-4.1,2.6-4.3,4.6H102.7z"/>
		<path fill="#70BF49" d="M114.1,92.5c1.8,0,3.1-0.8,4.2-2l1.2,1.1c-1.3,1.5-3,2.5-5.5,2.5c-3.7,0-6.7-2.8-6.7-7c0-3.9,2.7-7,6.4-7
			c4,0,6.2,3.3,6.2,7.3c0,0.2,0-0.2,0,0.8h-10.6C109.7,91.2,111.7,92.5,114.1,92.5z M118,86.2c-0.2-2-1.6-4.6-4.3-4.6
			c-2.3,0-4.1,2.6-4.4,4.6H118z"/>
		<path fill="#70BF49" d="M125,94.2h-2v-14h2v3.7c1-2.2,3-3.8,5-3.7v2h0.8c-2.9,0-5.8,2.2-5.8,6.2V94.2z"/>
		<path fill="#0C436A" d="M140,80.2v2h-4v12h-2v-12h-2v-2h2v-1c0-2.9,1.4-4.5,3.9-4.5c0.9,0,2.1,0.1,2.1,0.3v1.7
			c0-0.2-1.1-0.3-1.8-0.3c-1.6,0-2.2,0.9-2.2,2.8v0.9H140z"/>
		<path fill="#0C436A" d="M143,94.2v-19h2v19H143z"/>
		<path fill="#0C436A" d="M156.4,94.1c-4,0-6.9-3.2-6.9-7c0-3.8,3-7,7-7c4,0,7,3.2,7,7C163.4,90.9,160.5,94.1,156.4,94.1z
			 M156.4,81.8c-2.9,0-4.9,2.3-4.9,5.2c0,2.9,2.1,5.2,4.9,5.2c2.9,0,4.9-2.3,4.9-5.2C161.4,84.2,159.3,81.8,156.4,81.8z"/>
		<path fill="#0C436A" d="M169,94.2h-2v-14h2v3.7c1-2.2,2-3.8,5-3.7v2h0.4c-2.9,0-5.4,2.2-5.4,6.2V94.2z"/>
		<path fill="#0C436A" d="M177.5,77.2v-2h2v2H177.5z M177,94.2v-14h2v14H177z"/>
		<path fill="#0C436A" d="M195,94.2v-3.1c-1,1.6-2.6,3-5.1,3c-3.2,0-6.4-2.5-6.4-7c0-4.4,3.2-7,6.4-7c2.5,0,4.1,1.3,5.1,2.8v-7.7h2
			v19H195z M190.3,81.9c-2.6,0-4.7,1.9-4.7,5.2c0,3.2,2.2,5.2,4.7,5.2c2.5,0,4.8-2.1,4.8-5.2C195.2,83.9,192.8,81.9,190.3,81.9z"/>
		<path fill="#0C436A" d="M202.3,82.9l-0.6-1.6c1.5-0.7,2.8-1.1,4.7-1.1c3.7,0,5.6,1.9,5.6,5.4v8.6h-2v-2.4c-1,1.2-2.3,2.3-4.7,2.3
			c-2.5,0-4.9-1.4-4.9-4.2c0-2.8,2.2-4.3,5.6-4.3c1.7,0,3,0.2,4,0.6v-0.5c0-2.4-1.3-3.7-3.8-3.7C204.6,82,203.6,82.4,202.3,82.9z
			 M202.5,89.8c0,1.7,1.4,2.7,3.2,2.7c2.5,0,4.3-1.5,4.3-3.6v-1.3c-1-0.3-2.1-0.6-3.7-0.6C203.8,87,202.5,88.1,202.5,89.8z"/>
	</g>
	<polygon fill="#0C436A" points="83.6,16.2 92.2,41.9 96.4,54.2 109.3,54.2 96.5,16.2 	"/>
	<polygon fill="#70BF49" points="96.4,54.7 96.4,54.7 96.4,54.6 	"/>
	<polygon fill="#70BF49" points="137.7,27.2 141.4,16.2 109.1,16.2 102.8,35.2 109.3,54.7 113.4,42.2 131.4,42.2 134.8,32.2 
		116.7,32.2 118.3,27.2 	"/>
	<polygon fill="#009774" points="96.4,54.6 96.4,54.7 109.2,54.7 109.3,54.6 102.8,35.1 	"/>
</g>
</svg>
